M48
; DRILL file {KiCad 9.0.0} date 2025-04-10T22:58:45+0530
; FORMAT={-:-/ absolute / metric / decimal}
; #@! TF.CreationDate,2025-04-10T22:58:45+05:30
; #@! TF.GenerationSoftware,Kicad,Pcbnew,9.0.0
; #@! TF.FileFunction,Plated,1,2,PTH
FMAT,2
METRIC
; #@! TA.AperFunction,Plated,PTH,ViaDrill
T1C0.300
; #@! TA.AperFunction,Plated,PTH,ComponentDrill
T2C0.800
; #@! TA.AperFunction,Plated,PTH,ComponentDrill
T3C1.200
; #@! TA.AperFunction,Plated,PTH,ComponentDrill
T4C2.500
%
G90
G05
T1
X60.5Y-96.0
X63.0Y-98.5
X66.685Y-98.685
X67.0Y-96.0
X82.5Y-52.5
X100.5Y-57.0
X104.0Y-69.5
X110.0Y-48.5
X112.02Y-65.5
X114.0Y-49.5
T2
X101.395Y-91.93
X101.395Y-94.47
X101.395Y-97.01
X101.395Y-99.55
T3
X79.0Y-54.5
X81.54Y-54.5
X84.08Y-54.5
X86.62Y-54.5
X89.16Y-54.5
X91.7Y-54.5
X94.24Y-54.5
X96.78Y-54.5
X99.32Y-54.5
X101.86Y-54.5
X104.4Y-54.5
X106.94Y-54.5
X109.48Y-54.5
X112.02Y-54.5
X114.56Y-54.5
X117.1Y-54.5
T4
X73.501Y-54.5
X73.501Y-85.501
X148.499Y-85.501
X148.5Y-54.5
M30
