%TF.GenerationSoftware,KiCad,Pcbnew,9.0.0*%
%TF.CreationDate,2025-04-10T22:31:43+05:30*%
%TF.ProjectId,greenhouse_control_assignment_new,67726565-6e68-46f7-9573-655f636f6e74,rev?*%
%TF.SameCoordinates,Original*%
%TF.FileFunction,Copper,L2,Bot*%
%TF.FilePolarity,Positive*%
%FSLAX46Y46*%
G04 Gerber Fmt 4.6, Leading zero omitted, Abs format (unit mm)*
G04 Created by KiCad (PCBNEW 9.0.0) date 2025-04-10 22:31:43*
%MOMM*%
%LPD*%
G01*
G04 APERTURE LIST*
%TA.AperFunction,ComponentPad*%
%ADD10R,1.500000X1.500000*%
%TD*%
%TA.AperFunction,ComponentPad*%
%ADD11C,1.500000*%
%TD*%
%TA.AperFunction,ComponentPad*%
%ADD12C,3.000000*%
%TD*%
%TA.AperFunction,ComponentPad*%
%ADD13R,1.800000X2.600000*%
%TD*%
%TA.AperFunction,ComponentPad*%
%ADD14O,1.800000X2.600000*%
%TD*%
%TA.AperFunction,ViaPad*%
%ADD15C,0.600000*%
%TD*%
%TA.AperFunction,Conductor*%
%ADD16C,0.200000*%
%TD*%
G04 APERTURE END LIST*
D10*
%TO.P,U2,1,VDD*%
%TO.N,/18*%
X101395000Y-91930000D03*
D11*
%TO.P,U2,2,DATA*%
%TO.N,Net-(J2-Pin_1)*%
X101395000Y-94470000D03*
%TO.P,U2,3,NC*%
%TO.N,unconnected-(U2-NC-Pad3)*%
X101395000Y-97010000D03*
%TO.P,U2,4,GND*%
%TO.N,GND*%
X101395000Y-99550000D03*
%TD*%
D12*
%TO.P,DS1,*%
%TO.N,*%
X73500900Y-54500000D03*
X73500900Y-85500700D03*
X148499480Y-85500700D03*
X148500000Y-54500000D03*
D13*
%TO.P,DS1,1,VSS*%
%TO.N,GND*%
X79000000Y-54500000D03*
D14*
%TO.P,DS1,2,VDD*%
%TO.N,+5V*%
X81540000Y-54500000D03*
%TO.P,DS1,3,VO*%
%TO.N,/19*%
X84080000Y-54500000D03*
%TO.P,DS1,4,RS*%
%TO.N,/7*%
X86620000Y-54500000D03*
%TO.P,DS1,5,R/W*%
%TO.N,GND*%
X89160000Y-54500000D03*
%TO.P,DS1,6,E*%
%TO.N,/6*%
X91700000Y-54500000D03*
%TO.P,DS1,7,D0*%
%TO.N,unconnected-(DS1-D0-Pad7)*%
X94240000Y-54500000D03*
%TO.P,DS1,8,D1*%
%TO.N,unconnected-(DS1-D1-Pad8)*%
X96780000Y-54500000D03*
%TO.P,DS1,9,D2*%
%TO.N,unconnected-(DS1-D2-Pad9)*%
X99320000Y-54500000D03*
%TO.P,DS1,10,D3*%
%TO.N,unconnected-(DS1-D3-Pad10)*%
X101860000Y-54500000D03*
%TO.P,DS1,11,D4*%
%TO.N,/5*%
X104400000Y-54500000D03*
%TO.P,DS1,12,D5*%
%TO.N,/4*%
X106940000Y-54500000D03*
%TO.P,DS1,13,D6*%
%TO.N,/3*%
X109480000Y-54500000D03*
%TO.P,DS1,14,D7*%
%TO.N,/2*%
X112020000Y-54500000D03*
%TO.P,DS1,15,LED(+)*%
%TO.N,+5V*%
X114560000Y-54500000D03*
%TO.P,DS1,16,LED(-)*%
%TO.N,GND*%
X117100000Y-54500000D03*
%TD*%
D15*
%TO.N,+5V*%
X110000000Y-48500000D03*
X82500000Y-52500000D03*
%TO.N,GND*%
X114000000Y-49500000D03*
X100500000Y-57000000D03*
%TO.N,/2*%
X104000000Y-69500000D03*
X112020000Y-65500000D03*
%TO.N,/3*%
X60500000Y-96000000D03*
X67000000Y-96000000D03*
%TO.N,/5*%
X63000000Y-98500000D03*
X66685000Y-98685000D03*
%TD*%
D16*
%TO.N,+5V*%
X86500000Y-48500000D02*
X110000000Y-48500000D01*
X82500000Y-52500000D02*
X86500000Y-48500000D01*
%TO.N,GND*%
X110681000Y-52819000D02*
X114000000Y-49500000D01*
X110681000Y-55397470D02*
X110681000Y-52819000D01*
X109078470Y-57000000D02*
X110681000Y-55397470D01*
X100500000Y-57000000D02*
X109078470Y-57000000D01*
%TO.N,/2*%
X108000000Y-65500000D02*
X104000000Y-69500000D01*
X112020000Y-65500000D02*
X108000000Y-65500000D01*
%TO.N,/3*%
X67000000Y-96000000D02*
X60500000Y-96000000D01*
%TO.N,/5*%
X66500000Y-98500000D02*
X63000000Y-98500000D01*
X66685000Y-98685000D02*
X66500000Y-98500000D01*
%TD*%
M02*
